{"accessors" : [{"bufferView" : 0, "byteOffset" : 0, "componentType" : 5123, "count" : 9, "type" : "SCALAR", "max" : [3], "min" : [0]}, {"bufferView" : 1, "byteOffset" : 0, "componentType" : 5126, "count" : 4, "type" : "VEC3", "max" : [2000, 2500, 0], "min" : [-2000, -2500, 0], "name" : "POSITION"}, {"bufferView" : 0, "byteOffset" : 20, "componentType" : 5123, "count" : 6, "type" : "SCALAR", "max" : [3], "min" : [0]}, {"bufferView" : 2, "byteOffset" : 0, "componentType" : 5126, "count" : 4, "type" : "VEC3", "max" : [0, 0, 200], "min" : [-1500, -500, 0], "name" : "POSITION"}, {"bufferView" : 0, "byteOffset" : 32, "componentType" : 5123, "count" : 36, "type" : "SCALAR", "max" : [7], "min" : [0]}, {"bufferView" : 3, "byteOffset" : 0, "componentType" : 5126, "count" : 8, "type" : "VEC3", "max" : [50, 100, 60], "min" : [-50, -100, 0], "name" : "POSITION"}, {"bufferView" : 0, "byteOffset" : 104, "componentType" : 5123, "count" : 36, "type" : "SCALAR", "max" : [7], "min" : [0]}, {"bufferView" : 4, "byteOffset" : 0, "componentType" : 5126, "count" : 8, "type" : "VEC3", "max" : [100, 100, 120], "min" : [-100, -100, 0], "name" : "POSITION"}, {"bufferView" : 0, "byteOffset" : 176, "componentType" : 5123, "count" : 36, "type" : "SCALAR", "max" : [7], "min" : [0]}, {"bufferView" : 5, "byteOffset" : 0, "componentType" : 5126, "count" : 8, "type" : "VEC3", "max" : [200, 200, 240], "min" : [-200, -200, 0], "name" : "POSITION"}], "asset" : {"generator" : "Aspose.3D 25.3.0", "version" : "2.0"}, "buffers" : [{"uri" : "data:application/octet-stream;base64,", "byteLength" : 656}], "bufferViews" : [{"buffer" : 0, "byteOffset" : 0, "byteLength" : 248, "target" : 34963}, {"buffer" : 0, "byteOffset" : 252, "byteLength" : 48, "byteStride" : 12, "target" : 34962}, {"buffer" : 0, "byteOffset" : 304, "byteLength" : 48, "byteStride" : 12, "target" : 34962}, {"buffer" : 0, "byteOffset" : 356, "byteLength" : 96, "byteStride" : 12, "target" : 34962}, {"buffer" : 0, "byteOffset" : 456, "byteLength" : 96, "byteStride" : 12, "target" : 34962}, {"buffer" : 0, "byteOffset" : 556, "byteLength" : 96, "byteStride" : 12, "target" : 34962}], "materials" : [{"name" : "Dummy Material", "pbrMetallicRoughness" : {"baseColorFactor" : [0.25, 0.5, 0, 1], "metallicFactor" : 1, "roughnessFactor" : 1}, "emissiveFactor" : [0, 0, 0], "alphaMode" : "OPAQUE", "doubleSided" : false}], "meshes" : [{"primitives" : [{"attributes" : {"POSITION" : 1}, "indices" : 0, "mode" : 4}], "name" : ""}, {"primitives" : [{"attributes" : {"POSITION" : 3}, "indices" : 2, "material" : 0, "mode" : 4}], "name" : ""}, {"primitives" : [{"attributes" : {"POSITION" : 5}, "indices" : 4, "mode" : 4}], "name" : ""}, {"primitives" : [{"attributes" : {"POSITION" : 7}, "indices" : 6, "mode" : 4}], "name" : ""}, {"primitives" : [{"attributes" : {"POSITION" : 9}, "indices" : 8, "mode" : 4}], "name" : ""}], "nodes" : [{"mesh" : 0, "name" : "TerrainNode1"}, {"mesh" : 1}, {"children" : [1], "name" : "PVnode1"}, {"matrix" : [1, 0, 0, 0, 0, 1, 0, 0, 0, 0, 1, 0, 100, -100, 0, 1], "mesh" : 2, "name" : "Inverter3DNode1"}, {"matrix" : [1, 0, 0, 0, 0, 1, 0, 0, 0, 0, 1, 0, 100, -900, 0, 1], "mesh" : 2, "name" : "Inverter3DNode2"}, {"matrix" : [1, 0, 0, 0, 0, 1, 0, 0, 0, 0, 1, 0, 100, -1700, 0, 1], "mesh" : 2, "name" : "Inverter3DNode3"}, {"matrix" : [1, 0, 0, 0, 0, 1, 0, 0, 0, 0, 1, 0, 600, -900, 0, 1], "mesh" : 3, "name" : "Combiner3DNode"}, {"matrix" : [1, 0, 0, 0, 0, 1, 0, 0, 0, 0, 1, 0, 1800, -850, 0, 1], "mesh" : 4, "name" : "Transformer3DNode"}], "scene" : 0, "scenes" : [{"nodes" : [0, 2, 3, 4, 5, 6, 7]}]}